<?xml version="1.0" encoding="UTF-8"?>
<svg width="252px" height="253px" viewBox="0 0 252 253" version="1.1" xmlns="http://www.w3.org/2000/svg" xmlns:xlink="http://www.w3.org/1999/xlink">
    <!-- Generator: Sketch 57 (83077) - https://sketch.com -->
    <title>Group</title>
    <desc>Created with Sketch.</desc>
    <g id="Page-1" stroke="none" stroke-width="1" fill="none" fill-rule="evenodd">
        <g id="Artboard" transform="translate(-2.000000, -2.000000)" stroke="#979797" stroke-width="2">
            <g id="Group" transform="translate(128.000000, 128.000000) rotate(90.000000) translate(-128.000000, -128.000000) translate(3.000000, 3.000000)">
                <path d="M125,2.84217094e-14 C139.923001,2.84217094e-14 154.235226,2.6150385 167.503428,7.41186616 L125.445579,125.540043 L245.315982,90.9843699 C248.367423,101.799129 250,113.20891 250,125 C250,194.035594 194.035594,250 125,250 C55.9644063,250 0,194.035594 0,125 C0,55.9644063 55.9644063,2.84217094e-14 125,2.84217094e-14 Z" id="Path" fill="#B8B8B8"></path>
                <path d="M125,11 C138.609722,11 151.662422,13.384896 163.762981,17.7595694 L125.406368,125.492519 L234.728087,93.9774302 C237.511058,103.840584 239,114.246412 239,125 C239,187.960461 187.960461,239 125,239 C62.0395385,239 11,187.960461 11,125 C11,62.0395385 62.0395385,11 125,11 Z" id="Path" fill="#D8D8D8"></path>
                <path d="M134.150879,116.02972 L175.940665,2.61136454 C195.135461,11.2119847 210.706762,22.8136694 222.654566,37.4164185 C234.60237,52.0191677 243.717515,67.3276591 250,83.3418928 L134.150879,116.02972 Z" id="Path-2" fill="#B8B8B8"></path>
                <path d="M135,115 L171.794049,15 C188.694213,22.5830937 202.404051,32.8122005 212.923561,45.6873203 C223.443072,58.5624401 231.468551,72.0598069 237,86.1794206 L135,115 Z" id="Path-2-Copy" fill="#D8D8D8"></path>
            </g>
        </g>
    </g>
</svg>